# xmcd
#
# Track frame offsets: 
#        150
#        21232
#        39890
#        57918
#        78793
#        95134
#        112037
#        130400
#        145827
#        166666
#        181502
#        203935
#
# Disc length: 2939 seconds
#
# Revision: 2
# Processed by: cddbd v1.5.1PL0 Copyright (c) Steve Scherf et al.
# Submitted via: ExactAudioCopy v0.95b2
#
DISCID=980b790c
DTITLE=Phish - A Phish Tribute
DYEAR=2004
DGENRE=Bluegrass
TTITLE0=Birds Of A Feather
TTITLE1=Bouncing Around The Room
TTITLE2=Sample In A Jar
TTITLE3=Chalk Dust Torture
TTITLE4=Farmhouse
TTITLE5=Fast Enough For You
TTITLE6=Down With Disease
TTITLE7=Heavy Things
TTITLE8=46 Days
TTITLE9=Free
TTITLE10=Gotta Jibboo
TTITLE11=Back On The Train
EXTD=
EXTT0=
EXTT1=
EXTT2=
EXTT3=
EXTT4=
EXTT5=
EXTT6=
EXTT7=
EXTT8=
EXTT9=
EXTT10=
EXTT11=
PLAYORDER=
